# xmcd
# Track frame offsets:
# 150
# 24827
# 47559
# 66032
# 87748
# 107459
# 128176
# 144080
# 156232
# 177625
# 197002
#
# Disc length: 2818 seconds
# Revision: 0
# Processed by: cddbd v1.5.2PL0 Copyright (c) Steve Scherf et al.
# Submitted via: VisiTrax 2.10.0.248 - For more info visit www.synapsa.com
#
DISCID=8f0b000b
DTITLE=Harrelson, John - Streets of Heart and Lust
DYEAR=1900
DGENRE=Country
TTITLE0=Go Home Lisa
TTITLE1=Whiskey Love
TTITLE2=More Than Lonely
TTITLE3=Poor Pooz
TTITLE4=Still Lonely
TTITLE5=Easy Company
TTITLE6=24 Hours
TTITLE7=Gettin' To It
TTITLE8=I'm Gonna Ruin You
TTITLE9=Baby, I'm Gonna Ruin You
TTITLE10=Carlyle County Fair
EXTD=
EXTT0=
EXTT1=
EXTT2=
EXTT3=
EXTT4=
EXTT5=
EXTT6=
EXTT7=
EXTT8=
EXTT9=
EXTT10=
PLAYORDER=
